Coordinates
version=1
nRows=16
nColumns=33
inDegrees=yes

Units are S.I. units (second, meters, Newtons, ...)
Angles are in degrees.

endheader
time	ground_thorax_rot_x	ground_thorax_rot_y	ground_thorax_rot_z	ground_thorax_tx	ground_thorax_ty	ground_thorax_tz	clav_prot_r	clav_elev_r	scapula_abduction_r	scapula_elevation_r	scapula_upward_rot_r	scapula_winging_r	shoulder_elv_r	plane_of_elev_r	axial_rot_r	elbow_flexion_r	pro_sup_r	wrist_flex_r	wrist_dev_r	clav_prot_l	clav_elev_l	scapula_abduction_l	scapula_elevation_l	scapula_upward_rot_l	scapula_winging_l	shoulder_elv_l	plane_of_elev_l	axial_rot_l	elbow_flexion_l	pro_sup_l	wrist_flex_l	wrist_dev_l
      3.31000000	      4.26059639	     -2.45166681	     11.49099090	     -0.11211679	      1.04558735	      0.00402905	     10.33128401	    -12.95877901	     20.66407809	     -7.68740679	      5.26794989	     -3.73660586	     55.36523736	     14.03980716	    -20.78412261	    133.94247208	     46.74343084	     21.91945326	     -9.65358905	     10.47495269	     -9.95070002	    -15.95597679	      0.10970054	     -9.16363728	      2.19284921	     53.26284894	     47.89005219	     -5.11598164	    118.63431667	     32.00240723	     -6.59497729	    -14.36543384
      3.32000000	      4.27773846	     -2.37542155	     11.50887448	     -0.11208116	      1.04549668	      0.00417287	     10.32809835	    -12.95831509	     20.71340519	     -7.72522950	      5.36929083	     -3.75907364	     55.43549768	     14.13088474	    -20.74269500	    133.93187166	     46.76132090	     22.00217533	     -9.66472879	     10.49562972	     -9.91113174	    -15.99037013	      0.07202033	     -9.16508496	      2.22276917	     53.38710834	     47.87851807	     -5.31475441	    118.69105133	     32.02459677	     -6.57390819	    -14.39457244
      3.33000000	      4.27671924	     -2.37372927	     11.51310265	     -0.11210413	      1.04573785	      0.00425816	     10.32801977	    -12.95714917	     20.71458388	     -7.72618819	      5.37190615	     -3.75831554	     55.43726343	     14.13281784	    -20.74268263	    133.93195598	     46.76147764	     22.00323070	     -9.66504607	     10.49601171	     -9.91041968	    -15.99097894	      0.07265141	     -9.16334116	      2.22176043	     53.38862611	     47.88086001	     -5.31636807	    118.69243939	     32.02478520	     -6.57383686	    -14.39495463
      3.34000000	      4.24535737	     -2.28092322	     11.60785165	     -0.11206528	      1.04564810	      0.00448220	     10.32050472	    -12.95493922	     20.74887734	     -7.75723581	      5.45842497	     -3.77471492	     55.49696406	     14.20410985	    -20.73871503	    133.93828429	     46.76565072	     22.03163047	     -9.67346026	     10.49524534	     -9.90200058	    -15.99673095	      0.07381534	     -9.14274952	      2.22790993	     53.44086752	     47.90593874	     -5.39015901	    118.73407727	     32.03188128	     -6.56733464	    -14.40935369
      3.35000000	      4.34488456	     -2.02303210	     11.31838204	     -0.11167876	      1.04590724	      0.00429335	     10.25025335	    -12.83087158	     20.83283443	     -7.78719507	      5.82982254	     -3.86473667	     55.86375121	     14.13852127	    -20.90161196	    133.88250916	     46.80883402	     22.54040908	     -9.93343116	     10.56764188	     -9.93053241	    -16.09721908	      0.06789477	     -9.21234831	      2.26045363	     53.44099098	     48.29092168	     -5.64083021	    118.72132764	     32.14206880	     -6.55913562	    -14.45156077
      3.36000000	      4.30002489	     -1.98967646	     11.41308082	     -0.11184032	      1.04604751	      0.00444669	     10.22338187	    -12.79612278	     20.85037919	     -7.79959915	      5.94399757	     -3.88908905	     55.92541010	     14.18159256	    -20.94994017	    133.83414299	     46.81211466	     22.60058497	     -9.97160411	     10.56614074	     -9.89228519	    -16.09757917	      0.03644814	     -9.20473001	      2.27422765	     53.50857501	     48.24713626	     -5.74603746	    118.66735207	     32.16631924	     -6.54476358	    -14.45910502
      3.37000000	      3.96365792	     -1.90839442	     11.36687497	     -0.11187101	      1.04600304	      0.00392952	     10.36778071	    -12.55313414	     21.38797365	     -7.78174847	      6.48820054	     -4.22445483	     55.52045533	     13.79573599	    -21.55626000	    133.34303963	     46.92740397	     25.83391878	    -11.96580497	     10.61373754	     -9.41898743	    -16.16671888	     -0.39767642	     -9.20324105	      2.46768753	     53.21363881	     48.85470090	     -6.21733563	    118.43149387	     32.69480000	     -6.88193759	    -14.64137692
      3.38000000	      3.95550422	     -1.80107676	     11.44697091	     -0.11197285	      1.04628711	      0.00413680	     10.32414638	    -12.49720363	     21.41027891	     -7.79756224	      6.66146956	     -4.25734967	     55.66366836	     13.85200828	    -21.56647320	    133.21417874	     46.95077443	     25.84101926	    -11.95713292	     10.59952465	     -9.37884739	    -16.14928032	     -0.42311735	     -9.17878942	      2.47205432	     53.25679191	     48.80468020	     -6.27195719	    118.40511980	     32.69862883	     -6.87570242	    -14.64300595
      3.39000000	      3.99986799	     -1.69580499	     11.34314826	     -0.11211141	      1.04643885	      0.00406337	     10.24560154	    -12.37809764	     21.50567133	     -7.84328315	      7.06563104	     -4.35380338	     55.97087819	     13.95710396	    -21.65246586	    132.87424091	     46.99960897	     25.89523647	    -12.00320708	     10.61233253	     -9.43151530	    -16.19275455	     -0.34092533	     -9.10425007	      2.47030190	     53.21480104	     48.95022732	     -6.28436884	    118.32334784	     32.69654779	     -6.89207710	    -14.63474351
      3.40000000	      4.15512349	     -1.91922303	     11.16349922	     -0.11230992	      1.04682346	      0.00402361	      9.64203202	    -12.65364270	     20.36608536	     -8.01717432	      6.82274598	     -3.74885541	     56.83410874	     16.40791208	    -17.68293740	    131.66851387	     51.56790209	     18.03072043	    -24.99999983	     10.14342253	     -9.50629822	    -15.56003382	     -0.05591160	     -8.62825885	      2.20811482	     52.68899580	     48.80008914	     -6.72846875	    118.19086110	     32.70071880	     -7.35927475	    -14.93790371
      3.41000000	      4.11190782	     -1.73958117	     11.23402636	     -0.11221252	      1.04706878	      0.00448229	      9.56808589	    -12.49560375	     20.31800836	     -7.92855734	      6.96217481	     -3.80689225	     57.10635328	     16.31335364	    -17.63947449	    131.76940624	     51.45174041	     17.95670373	    -24.93618023	     10.09431077	     -9.41588981	    -15.50039771	     -0.10193203	     -8.54745926	      2.21411086	     52.76794765	     48.79522274	     -6.77485142	    118.18775805	     32.69748809	     -7.35362289	    -14.93837110
      3.42000000	      4.11588138	     -1.40591605	     11.23384241	     -0.11223468	      1.04699750	      0.00410897	      9.87871468	    -12.13340878	     20.99866476	     -7.70419038	      7.25817977	     -4.26507619	     58.04936532	     15.93654909	    -17.99353063	    132.14174931	     47.96562307	     15.64932341	    -22.55233574	     10.28490828	     -9.30570916	    -15.77737595	     -0.26546093	     -8.68304457	      2.36606089	     52.44446683	     49.36606192	     -7.05665668	    117.86946365	     32.54336598	     -7.56074956	    -14.91925021
      3.43000000	      4.01750584	     -1.19155870	     11.22558532	     -0.11224410	      1.04753852	      0.00417496	      9.80769912	    -12.03960452	     21.14462251	     -7.79647841	      7.72956754	     -4.36317563	     58.45630089	     15.93883184	    -18.44710960	    131.85275417	     47.96717035	     15.66214038	    -22.39375220	     10.27834491	     -9.35180430	    -15.78047556	     -0.20869436	     -8.65117626	      2.35138983	     52.47321184	     49.45711809	     -7.20549519	    117.75022424	     32.55723587	     -7.57126698	    -14.94564377
      3.44000000	      3.84502227	     -0.99794100	     11.39494128	     -0.11247119	      1.04820962	      0.00427628	      9.73665663	    -11.89818109	     21.27884286	     -7.83497144	      8.17374152	     -4.48055996	     58.72595836	     16.00199676	    -18.81388449	    131.31843653	     47.97799076	     15.68221351	    -22.32611511	     10.29194343	     -9.36282817	    -15.78354290	     -0.22085100	     -8.69959992	      2.34828404	     52.49312340	     49.47678213	     -7.37529542	    117.64855091	     32.56389982	     -7.57206625	    -14.96760487
      3.45000000	      3.66859641	     -0.77371338	     11.55389385	     -0.11272854	      1.04887935	      0.00431863	      9.64266143	    -11.70008421	     21.45099047	     -7.87154984	      8.75311213	     -4.63872869	     59.03162509	     16.12894675	    -19.25202291	    130.61206172	     48.02067001	     15.74817799	    -22.30753136	     10.31846710	     -9.36986794	    -15.80851410	     -0.24353679	     -8.76401131	      2.35306395	     52.50058509	     49.54910342	     -7.57331997	    117.48777999	     32.56895584	     -7.57499849	    -14.98939811
      3.46000000	      3.53572995	     -0.65755481	     11.65963450	     -0.11297461	      1.04858390	      0.00410523	      9.97147103	    -10.45884709	     22.70169764	     -7.20703286	      9.99537086	     -5.73904997	     58.63629470	     16.17153150	    -20.04291742	    129.82229842	     48.04258560	     18.06149502	    -22.85656542	     10.27361991	     -8.76286237	    -15.73176840	     -0.76860056	     -8.69544899	      2.52296966	     51.92384809	     50.16100486	     -8.07729265	    117.07759290	     32.16750016	     -8.37151581	    -15.46900293
